<svg width="149" height="30" viewBox="0 0 149 30" fill="none" xmlns="http://www.w3.org/2000/svg">
<path d="M17.0268 25.4851C13.9694 24.8869 16.4176 20.5833 18.0238 18.5062C18.8214 17.3554 20.8486 18.0267 21.7625 18.5062C24.7535 20.6996 27.2736 19.974 28.1598 19.3371C31.2172 23.7238 29.4337 25.2636 28.1598 25.4851C25.7227 25.7343 20.0842 26.0833 17.0268 25.4851Z" fill="#C8F904" stroke="#C8F904" stroke-width="0.166163"/>
<circle cx="24.8729" cy="17.3723" r="1.16314" fill="#C8F904"/>
<circle cx="22.2142" cy="13.8829" r="1.49547" fill="#C8F904"/>
<circle cx="22.713" cy="8.89798" r="0.99698" fill="#C8F904"/>
<path d="M31.4182 0.257477H28.1014C27.7354 0.257477 27.9489 0.791207 28.1014 1.05807L41.4828 14.6682L28.1014 28.0496C27.3695 28.7815 27.7964 28.812 28.1014 28.7358H29.3595C29.9085 29.0103 30.9607 28.3927 31.4182 28.0496C35.4974 24.0847 43.7702 15.9949 44.2277 15.3544C44.6852 14.7139 44.4183 13.8676 44.2277 13.5245L31.4182 0.257477Z" fill="#F4EDED" stroke="#F4EDED" stroke-width="0.228741"/>
<path d="M13.1766 0.257477H16.4933C16.8593 0.257477 16.6458 0.791207 16.4933 1.05807L3.11192 14.6682L16.4933 28.0496C17.2253 28.7815 16.7983 28.812 16.4933 28.7358H15.2352C14.6862 29.0103 13.634 28.3927 13.1766 28.0496C9.09733 24.0847 0.824514 15.9949 0.367033 15.3544C-0.0904503 14.7139 0.176414 13.8676 0.367033 13.5245L13.1766 0.257477Z" fill="#F4EDED" stroke="#F4EDED" stroke-width="0.228741"/>
<path d="M26.6518 0.285797L26.6704 0.295563L26.6733 0.297516L26.8735 0.41275C27.0765 0.537305 27.2863 0.6885 27.4741 0.859039L27.6547 1.03775C27.8295 1.22613 27.981 1.44424 28.0639 1.68423H28.0649L28.101 1.81314C28.1609 2.07343 28.1335 2.3476 27.9838 2.61002L27.8989 2.7399C27.6881 3.02359 27.337 3.26438 26.8462 3.47134V9.56705L30.1254 16.2614C30.225 16.429 30.3223 16.6217 30.4448 16.9128L32.8764 21.8766H32.8774L32.9067 21.9352L32.9096 21.985V21.9899L32.9419 22.3717C32.9982 23.246 32.9645 24.4124 32.7124 25.5172L32.6499 25.7711C32.3221 27.0211 31.6692 28.2439 30.437 28.735L30.1821 28.8239C29.6894 28.9703 28.9803 29.0695 28.1401 29.1344L27.2583 29.1881C26.3326 29.232 25.2839 29.2459 24.186 29.2389L23.0737 29.2253C20.078 29.1718 16.8842 28.9892 14.8579 28.8366L14.8559 28.8356L14.8325 28.8336L14.7651 28.8288L14.7104 28.7897L14.6909 28.776L14.685 28.7721C14.1379 28.365 13.3956 27.6558 12.7944 26.7585L12.5463 26.3629C11.9127 25.2778 11.5062 23.9296 11.9047 22.5163L11.9829 22.2545C12.4141 20.8878 13.4263 18.6472 14.5258 16.3795L15.4184 14.568C16.3006 12.8048 17.168 11.142 17.7905 9.97818V3.44595C17.6563 3.37137 17.5176 3.28508 17.3852 3.18619L17.2104 3.04556C17.003 2.86447 16.8061 2.63848 16.6889 2.37369L16.643 2.25748C16.5315 1.92485 16.5601 1.56009 16.7915 1.20865L16.8823 1.08365C17.1129 0.797292 17.4758 0.533186 17.978 0.289703L17.9858 0.286774L18.0034 0.278961L18.0512 0.257477H26.5971L26.6518 0.285797ZM20.0337 9.9772L20.0053 10.0319L19.9956 10.0504L19.9946 10.0534C19.3418 11.2554 18.4192 13.0021 17.4878 14.8551L16.5629 16.7272C15.4211 19.0825 14.4159 21.3449 14.0288 22.6813L13.9594 22.9362C13.6554 24.153 13.9958 25.0254 14.5307 25.6374L14.7456 25.86C15.2561 26.342 15.8858 26.6335 16.3501 26.7604C19.0893 26.8435 25.1979 26.9574 28.1538 26.7604L28.4038 26.736C28.8851 26.6716 29.2669 26.5206 29.5698 26.3161L29.7143 26.2086C30.086 25.9118 30.3444 25.5137 30.5131 25.0631L30.5727 24.8903C30.8449 24.0315 30.8102 23.0525 30.6801 22.3747L24.8003 9.61783V9.61685L24.7934 9.60318L24.77 9.5524V2.41666H20.0337V9.9772Z" fill="#F4EDED"/>
<path d="M48.0663 10.8631C48.0663 9.89383 48.3064 9.01627 48.7867 8.2304C49.2669 7.4358 49.9087 6.80274 50.7121 6.33121C51.5154 5.85969 52.406 5.62393 53.384 5.62393H63.1419V8.37448H53.384C52.6767 8.37448 52.0742 8.61897 51.5765 9.10795C51.0788 9.58821 50.8299 10.1732 50.8299 10.8631V19.0623C50.8299 19.7259 51.0788 20.2979 51.5765 20.7781C52.0742 21.2496 52.6767 21.4854 53.384 21.4854H63.1419V24.2491H53.384C52.406 24.2491 51.5154 24.0177 50.7121 23.5549C49.9087 23.0921 49.2669 22.4721 48.7867 21.695C48.3064 20.9091 48.0663 20.0446 48.0663 19.1016V10.8631ZM65.7746 15.5783C65.7746 14.6789 65.9929 13.8581 66.4295 13.1159C66.8748 12.3737 67.4686 11.7843 68.2108 11.3477C68.953 10.9024 69.7738 10.6797 70.6732 10.6797H73.6333C74.5327 10.6797 75.3534 10.9024 76.0957 11.3477C76.8379 11.7843 77.4273 12.3737 77.8639 13.1159C78.3092 13.8581 78.5319 14.6789 78.5319 15.5783V19.3505C78.5319 20.2498 78.3092 21.0706 77.8639 21.8129C77.4273 22.5551 76.8379 23.1488 76.0957 23.5942C75.3534 24.0308 74.5327 24.2491 73.6333 24.2491H70.6732C69.7738 24.2491 68.953 24.0308 68.2108 23.5942C67.4686 23.1488 66.8748 22.5551 66.4295 21.8129C65.9929 21.0706 65.7746 20.2498 65.7746 19.3505V15.5783ZM68.5382 19.3243C68.5382 19.918 68.7478 20.4289 69.1669 20.8567C69.586 21.2758 70.0881 21.4854 70.6732 21.4854H73.6333C74.227 21.4854 74.7291 21.2758 75.1395 20.8567C75.5586 20.4289 75.7682 19.918 75.7682 19.3243V15.6045C75.7682 15.0107 75.5586 14.5043 75.1395 14.0851C74.7291 13.6573 74.227 13.4433 73.6333 13.4433H70.6732C70.0881 13.4433 69.586 13.6573 69.1669 14.0851C68.7478 14.5043 68.5382 15.0107 68.5382 15.6045V19.3243ZM81.4134 15.5783C81.4134 14.6789 81.6317 13.8581 82.0683 13.1159C82.5136 12.3737 83.1074 11.7843 83.8496 11.3477C84.5918 10.9024 85.4126 10.6797 86.312 10.6797H89.5471V13.4433H86.312C85.7269 13.4433 85.2249 13.6573 84.8057 14.0851C84.3866 14.5043 84.177 15.0107 84.177 15.6045V19.3505C84.177 19.9355 84.3866 20.4376 84.8057 20.8567C85.2249 21.2758 85.7269 21.4854 86.312 21.4854H91.1189V5.62393H93.8825V21.4854C93.8825 22.2451 93.6118 22.8956 93.0705 23.437C92.5291 23.9784 91.8786 24.2491 91.1189 24.2491H86.312C85.4126 24.2491 84.5918 24.0308 83.8496 23.5942C83.1074 23.1488 82.5136 22.5594 82.0683 21.826C81.6317 21.0837 81.4134 20.2673 81.4134 19.3767V15.5783ZM97.026 13.4826C97.026 12.7055 97.3098 12.0462 97.8774 11.5049C98.4449 10.9547 99.126 10.6797 99.9206 10.6797H105.579C106.304 10.6797 106.959 10.8587 107.544 11.2167C108.137 11.566 108.609 12.0419 108.958 12.6444C109.316 13.2381 109.495 13.8974 109.495 14.6221V15.002C109.495 15.718 109.316 16.3729 108.958 16.9667C108.609 17.5517 108.137 18.0232 107.544 18.3812C106.959 18.7305 106.304 18.9051 105.579 18.9051H101.361V16.1546H105.605C105.919 16.1546 106.186 16.0411 106.404 15.814C106.631 15.587 106.745 15.312 106.745 14.9889V14.6221C106.745 14.2903 106.631 14.0109 106.404 13.7839C106.186 13.5569 105.919 13.4433 105.605 13.4433H99.7896V20.4114C99.7896 20.7083 99.8901 20.9615 100.091 21.1711C100.292 21.3806 100.536 21.4854 100.824 21.4854H108.539V24.2491H100.824C100.126 24.2491 99.4884 24.0788 98.9121 23.7382C98.3358 23.389 97.8774 22.9262 97.5368 22.3499C97.1963 21.7648 97.026 21.123 97.026 20.4245V13.4826ZM112.508 5.62393H115.271V24.2491H112.508V5.62393ZM118.297 15.5521C118.297 14.6527 118.515 13.8363 118.952 13.1028C119.397 12.3693 119.991 11.7843 120.733 11.3477C121.475 10.9024 122.296 10.6797 123.195 10.6797H130.766V24.2491H128.002V13.4433H123.195C122.61 13.4433 122.108 13.6529 121.689 14.072C121.27 14.4824 121.061 14.9845 121.061 15.5783V19.3243C121.061 19.918 121.27 20.4289 121.689 20.8567C122.108 21.2758 122.61 21.4854 123.195 21.4854H126.431V24.2491H123.195C122.296 24.2491 121.475 24.0308 120.733 23.5942C119.991 23.1488 119.397 22.5551 118.952 21.8129C118.515 21.0706 118.297 20.2498 118.297 19.3505V15.5521ZM133.779 5.62393H136.542V21.4854H141.349C141.943 21.4854 142.445 21.2758 142.855 20.8567C143.274 20.4376 143.484 19.9355 143.484 19.3505V15.6045C143.484 15.0107 143.274 14.5043 142.855 14.0851C142.445 13.6573 141.943 13.4433 141.349 13.4433H138.114V10.6797H141.349C142.248 10.6797 143.069 10.9024 143.811 11.3477C144.554 11.7843 145.143 12.3737 145.58 13.1159C146.025 13.8581 146.248 14.6789 146.248 15.5783V19.3767C146.248 20.2673 146.025 21.0837 145.58 21.826C145.143 22.5594 144.554 23.1488 143.811 23.5942C143.069 24.0308 142.248 24.2491 141.349 24.2491H136.542C135.782 24.2491 135.132 23.9784 134.591 23.437C134.049 22.8956 133.779 22.2451 133.779 21.4854V5.62393Z" fill="#F4EDED"/>
</svg>
