<svg width="158" height="158" viewBox="0 0 158 158" fill="none" xmlns="http://www.w3.org/2000/svg">
<path d="M59.25 0H0V59.25H59.25V0ZM49.375 49.375H9.875V9.875H49.375V49.375Z" fill="#111111"/>
<path d="M19.75 19.75H39.5V39.5H19.75V19.75ZM0 158H59.25V98.75H0V158ZM9.875 108.625H49.375V148.125H9.875V108.625Z" fill="#111111"/>
<path d="M19.75 118.5H39.5V138.25H19.75V118.5ZM98.75 0V59.25H158V0H98.75ZM148.125 49.375H108.625V9.875H148.125V49.375Z" fill="#111111"/>
<path d="M118.5 19.75H138.25V39.5H118.5V19.75ZM19.75 69.125H0V88.875H29.625V79H19.75V69.125ZM69.125 88.875H88.875V108.625H69.125V88.875ZM29.625 69.125H49.375V79H29.625V69.125ZM88.875 118.5H69.125V128.375H79V138.25H88.875V128.375V118.5ZM59.25 69.125V79H49.375V88.875H69.125V69.125H59.25ZM79 39.5H88.875V59.25H79V39.5ZM88.875 79V88.875H108.625V69.125H79V79H88.875ZM69.125 59.25H79V69.125H69.125V59.25ZM88.875 138.25H108.625V158H88.875V138.25ZM69.125 138.25H79V158H69.125V138.25ZM88.875 108.625H98.75V118.5H88.875V108.625ZM88.875 29.625V9.875H79V0H69.125V39.5H79V29.625H88.875ZM118.5 138.25H128.375V158H118.5V138.25ZM118.5 118.5H138.25V128.375H118.5V118.5ZM108.625 128.375H118.5V138.25H108.625V128.375ZM98.75 118.5H108.625V128.375H98.75V118.5ZM138.25 98.75V108.625H148.125V118.5H158V98.75H148.125H138.25ZM148.125 128.375H138.25V158H158V138.25H148.125V128.375ZM98.75 98.75V108.625H128.375V88.875H108.625V98.75H98.75ZM118.5 69.125V79H138.25V88.875H158V69.125H138.25H118.5Z" fill="#111111"/>
</svg>
