<svg width="47" height="47" viewBox="0 0 47 47" fill="none" xmlns="http://www.w3.org/2000/svg">
<g clip-path="url(#clip0_48_151)">
<rect width="47" height="47" rx="5.08108" fill="#939393"/>
<path d="M16 33.0909C16 31.1621 16.7902 29.3122 18.1967 27.9483C19.6032 26.5844 21.5109 25.8182 23.5 25.8182C25.4891 25.8182 27.3968 26.5844 28.8033 27.9483C30.2098 29.3122 31 31.1621 31 33.0909H29.125C29.125 31.6443 28.5324 30.2569 27.4775 29.234C26.4226 28.211 24.9918 27.6364 23.5 27.6364C22.0082 27.6364 20.5774 28.211 19.5225 29.234C18.4676 30.2569 17.875 31.6443 17.875 33.0909H16ZM23.5 24.9091C20.3922 24.9091 17.875 22.4682 17.875 19.4545C17.875 16.4409 20.3922 14 23.5 14C26.6078 14 29.125 16.4409 29.125 19.4545C29.125 22.4682 26.6078 24.9091 23.5 24.9091ZM23.5 23.0909C25.5719 23.0909 27.25 21.4636 27.25 19.4545C27.25 17.4455 25.5719 15.8182 23.5 15.8182C21.4281 15.8182 19.75 17.4455 19.75 19.4545C19.75 21.4636 21.4281 23.0909 23.5 23.0909Z" fill="#FBFBFB"/>
</g>
<defs>
<clipPath id="clip0_48_151">
<rect width="47" height="47" rx="5.08108" fill="white"/>
</clipPath>
</defs>
</svg>
